#!OML:ASF X:\für Bonn\!DataBase\2005_08_10_Bjorn_Final\c3d\bjorn.ASF
:FULLY-SPECIFIED
:DEGREES
97
root -0.0333494 19.2299 2.76209 -175.594 0.752606 180.719
lowerback -16.4256 -0.796785 1.31727
upperback 12.6295 -0.694783 1.3123
thorax 24.3983 0.168524 0.718845
lowerneck 17.3666 -14.5254 -2.48089
upperneck 10.691 -18.3479 5.95467
head 1.53635 -8.76925 2.95845
rclavicle -5.56597e-015 -2.94201e-014
rhumerus -1322.61 -129.781 1248.87
rradius 20.4245
rwrist -5.07194
rhand -21.5779 -2.19522
rfingers 7.12502
rthumb 4.81631 -32.1205
lclavicle -5.56597e-015 -2.94201e-014
lhumerus -772.718 55.1846 -698.475
lradius 15.6972
lwrist -30.9254
lhand -25.8825 9.38106
lfingers 7.12502
lthumb 0.659184 39.3598
rfemur -12.8188 -10.6603 13.2369
rtibia 28.1349
rfoot -13.3853 15.2868
rtoes -14.0386
lfemur -11.0969 5.94127 -15.8814
ltibia 27.5587
lfoot -14.0194 -11.1138
ltoes 2.27909
98
root -0.0394558 19.225 2.82043 -175.823 0.662693 180.652
lowerback -15.8461 -0.818255 1.45114
upperback 12.8457 -0.676055 1.30543
thorax 24.2975 0.227694 0.654974
lowerneck 16.1072 -14.4869 -2.22287
upperneck 10.9005 -18.3494 5.65299
head 1.74312 -8.76318 2.71163
rclavicle -5.36719e-015 -1.11319e-014
rhumerus -1321.98 -127.395 1246.86
rradius 19.0213
rwrist -2.02106
rhand -21.6707 -1.52619
rfingers 7.12502
rthumb 4.72675 -31.4535
lclavicle -5.36719e-015 -1.11319e-014
lhumerus -775.592 60.2123 -700.928
lradius 14.2644
lwrist -36.8922
lhand -26.2183 10.0386
lfingers 7.12502
lthumb 0.334912 40.0181
rfemur -12.7205 -10.5108 13.1756
rtibia 28.1027
rfoot -13.4915 14.9272
rtoes -14.2636
lfemur -11.1745 5.79606 -15.9663
ltibia 27.7972
lfoot -13.9979 -11.0507
ltoes 2.3315
99
root -0.0458485 19.2198 2.87965 -176.065 0.575233 180.588
lowerback -15.2436 -0.815524 1.63695
upperback 13.0563 -0.625818 1.25999
thorax 24.1683 0.314597 0.526275
lowerneck 14.7888 -14.4653 -1.93218
upperneck 11.1404 -18.3749 5.38409
head 1.97183 -8.76718 2.46842
rclavicle 1.23246e-014 1.43125e-014
rhumerus -1322.46 -124.417 1246.37
rradius 17.5778
rwrist 2.73348
rhand -21.1982 -0.483756
rfingers 7.12502
rthumb 5.18297 -30.4004
lclavicle 1.23246e-014 1.43125e-014
lhumerus -780.24 65.1323 -705.203
lradius 12.9692
lwrist -43.4029
lhand -26.2988 10.6061
lfingers 7.12502
lthumb 0.257195 40.5857
rfemur -12.6121 -10.3523 13.1048
rtibia 28.0841
rfoot -13.6095 14.5912
rtoes -14.575
lfemur -11.2339 5.64557 -16.0522
ltibia 28.0214
lfoot -13.9638 -10.9724
ltoes 2.12806
100
root -0.0520688 19.2156 2.9406 -176.284 0.495631 180.522
lowerback -14.6607 -0.824458 1.82236
upperback 13.2766 -0.587664 1.22168
thorax 24.0654 0.397423 0.402361
lowerneck 13.3062 -14.4194 -1.63507
upperneck 11.4534 -18.3791 5.07527
head 2.24608 -8.75826 2.1996
rclavicle -5.96354e-016 -5.96354e-015
rhumerus -1322.19 -121.612 1245.1
rradius 16.4205
rwrist 7.44424
rhand -20.5457 0.246431
rfingers 7.12502
rthumb 5.81301 -29.6538
lclavicle -5.96354e-016 -5.96354e-015
lhumerus -789.689 70.184 -714.268
lradius 11.8158
lwrist -50.7954
lhand -26.1524 10.0764
lfingers 7.12502
lthumb 0.398545 40.0558
rfemur -12.5502 -10.2785 13.0418
rtibia 28.0786
rfoot -13.7308 14.2946
rtoes -15.3649
lfemur -11.3184 5.48831 -16.1488
ltibia 28.232
lfoot -13.9571 -10.8768
ltoes 1.95335
101
root -0.0582501 19.2125 3.00194 -176.488 0.430134 180.462
lowerback -14.0823 -0.809682 2.02119
upperback 13.4707 -0.520502 1.17765
thorax 23.9266 0.493596 0.271935
lowerneck 12.0023 -14.3921 -1.32991
upperneck 11.7053 -18.3971 4.77546
head 2.47446 -8.75737 1.95225
rclavicle -5.1684e-015 -8.34896e-015
rhumerus -1320.57 -119.297 1242.34
rradius 15.5641
rwrist 10.8722
rhand -19.9894 0.42131
rfingers 7.12502
rthumb 6.35006 -29.4635
lclavicle -5.1684e-015 -8.34896e-015
lhumerus -805.64 74.2764 -729.655
lradius 10.8594
lwrist -57.7862
lhand -26.0218 8.01656
lfingers 7.12502
lthumb 0.524651 37.9957
rfemur -12.5193 -10.1671 12.9863
rtibia 28.0836
rfoot -13.8492 13.9872
rtoes -16.1395
lfemur -11.4031 5.3613 -16.2382
ltibia 28.4231
lfoot -13.9228 -10.7906
ltoes 1.72906
102
root -0.0640098 19.2101 3.0652 -176.661 0.366079 180.396
lowerback -13.5133 -0.791804 2.22602
upperback 13.6508 -0.448009 1.1198
thorax 23.7734 0.594009 0.121925
lowerneck 10.8212 -14.3206 -1.12655
upperneck 11.9573 -18.3677 4.64415
head 2.71337 -8.73326 1.78336
rclavicle -2.5842e-015 -7.15625e-015
rhumerus -1320.5 -116.246 1241.5
rradius 14.6913
rwrist 15.4602
rhand -19.413 0.895761
rfingers 7.12502
rthumb 6.90649 -28.9716
lclavicle -2.5842e-015 -7.15625e-015
lhumerus -824.616 76.6575 -747.704
lradius 10.1026
lwrist -64.0024
lhand -26.0637 6.07902
lfingers 7.12502
lthumb 0.484201 36.0582
rfemur -12.5269 -10.0246 12.9297
rtibia 28.0964
rfoot -13.9759 13.6488
rtoes -16.9384
lfemur -11.5242 5.20373 -16.3373
ltibia 28.5941
lfoot -13.8297 -10.6757
ltoes 1.797
103
root -0.0691235 19.2085 3.12756 -176.833 0.29046 180.333
lowerback -12.9696 -0.76452 2.43559
upperback 13.8361 -0.358323 1.05801
thorax 23.6456 0.70441 -0.029898
lowerneck 9.47629 -12.3657 -0.58101
upperneck 12.0062 -19.0805 4.86382
head 2.95524 -9.91274 1.61981
rclavicle -9.93923e-016 -2.78299e-015
rhumerus -1323.79 -112.151 1244.49
rradius 13.6653
rwrist 21.9295
rhand -19.0687 1.56341
rfingers 7.12502
rthumb 7.23885 -28.2928
lclavicle -9.93923e-016 -2.78299e-015
lhumerus -813.652 79.8172 -734.99
lradius 9.46291
lwrist -63.5643
lhand -25.8503 5.46558
lfingers 7.12502
lthumb 0.690329 35.4442
rfemur -12.5379 -9.94838 12.8737
rtibia 28.1127
rfoot -14.0658 13.3591
rtoes -17.5227
lfemur -11.6334 5.05024 -16.4316
ltibia 28.7479
lfoot -13.7722 -10.5775
ltoes 1.67201
104
root -0.0744145 19.2081 3.19012 -176.958 0.236569 180.271
lowerback -12.4804 -0.740351 2.64006
upperback 13.9996 -0.28092 1.01159
thorax 23.5256 0.804389 -0.166835
lowerneck 8.25211 -12.3243 -0.585481
upperneck 12.3192 -18.9909 4.88317
head 3.26707 -9.81134 1.5175
rclavicle 1.51076e-014 2.78299e-014
rhumerus -1329.22 -108.043 1249.6
rradius 12.6985
rwrist 28.6621
rhand -18.768 2.17658
rfingers 7.12502
rthumb 7.52908 -27.6694
lclavicle 1.51076e-014 2.78299e-014
lhumerus -794.227 82.1544 -713.887
lradius 8.9057
lwrist -63.1824
lhand -25.8765 5.18355
lfingers 7.12502
lthumb 0.665039 35.1623
rfemur -12.6076 -9.83386 12.8236
rtibia 28.1224
rfoot -14.1026 13.0921
rtoes -18.0632
lfemur -11.7901 4.91268 -16.5316
ltibia 28.8841
lfoot -13.6749 -10.4645
ltoes 1.74086
105
root -0.0790324 19.2075 3.25178 -177.06 0.194981 180.207
lowerback -12.0231 -0.706263 2.84227
upperback 14.1429 -0.191169 0.950474
thorax 23.4003 0.908798 -0.317833
lowerneck 7.13252 -12.2777 -0.570355
upperneck 12.5639 -18.891 4.94129
head 3.54488 -9.70703 1.43721
rclavicle 4.37326e-015 5.56597e-015
rhumerus -1334.03 -104.564 1253.81
rradius 11.8399
rwrist 34.3857
rhand -18.5978 2.9278
rfingers 7.12502
rthumb 7.69338 -26.9123
lclavicle 4.37326e-015 5.56597e-015
lhumerus -764.311 82.9599 -682.482
lradius 8.36221
lwrist -62.7585
lhand -26.0599 5.21805
lfingers 7.12502
lthumb 0.487878 35.1972
rfemur -12.6999 -9.71408 12.7762
rtibia 28.1332
rfoot -14.1462 12.807
rtoes -18.6751
lfemur -11.9583 4.81689 -16.6373
ltibia 29.0049
lfoot -13.5806 -10.376
ltoes 1.47838
106
root -0.0832982 19.2092 3.31215 -177.129 0.150438 180.168
lowerback -11.6144 -0.665361 3.06853
upperback 14.2603 -0.106824 0.896852
thorax 23.2733 1.01094 -0.477885
lowerneck 6.10081 -12.226 -0.563069
upperneck 12.8068 -18.7913 4.97701
head 3.80977 -9.60777 1.3593
rclavicle 5.76476e-015 1.51076e-014
rhumerus -1334.21 -101.736 1253.14
rradius 11.1198
rwrist 38.551
rhand -18.9095 3.80873
rfingers 7.12502
rthumb 7.39249 -26.0421
lclavicle 5.76476e-015 1.51076e-014
lhumerus -735.665 81.6484 -652.509
lradius 7.91788
lwrist -62.0796
lhand -25.8973 5.3377
lfingers 7.12502
lthumb 0.644946 35.3165
rfemur -12.8263 -9.5559 12.759
rtibia 28.135
rfoot -14.1716 12.4977
rtoes -19.1324
lfemur -12.1525 4.64931 -16.7166
ltibia 29.1017
lfoot -13.4538 -10.2236
ltoes 1.69221
107
root -0.087284 19.21 3.37049 -177.197 0.118203 180.107
lowerback -11.2514 -0.611184 3.28579
upperback 14.3876 0.00391014 0.823134
thorax 23.1953 1.12675 -0.647753
lowerneck 5.11674 -12.1877 -0.513315
upperneck 12.9758 -18.6976 5.03521
head 4.04228 -9.50972 1.29011
rclavicle -3.77691e-015 -1.82882e-014
rhumerus -1328.46 -99.2192 1246.44
rradius 10.5282
rwrist 41.4512
rhand -19.4948 4.56697
rfingers 7.12502
rthumb 6.82757 -25.3029
lclavicle -3.77691e-015 -1.82882e-014
lhumerus -717.308 78.83 -632.961
lradius 7.55805
lwrist -61.6091
lhand -25.7434 5.78846
lfingers 7.12502
lthumb 0.793597 35.7667
rfemur -12.943 -9.44907 12.713
rtibia 28.131
rfoot -14.1304 12.2829
rtoes -19.3554
lfemur -12.3324 4.56835 -16.8199
ltibia 29.1896
lfoot -13.3541 -10.1129
ltoes 1.39643
108
root -0.0915485 19.2128 3.42686 -177.25 0.0859601 180.045
lowerback -10.922 -0.560835 3.47671
upperback 14.5122 0.108824 0.780284
thorax 23.1385 1.2316 -0.768525
lowerneck 4.07947 -12.1532 -0.505611
upperneck 13.1992 -18.615 5.03343
head 4.3056 -9.41835 1.20226
rclavicle 4.96962e-015 -7.95139e-016
rhumerus -1310.74 -97.53 1227.87
rradius 10.0631
rwrist 42.8509
rhand -19.838 5.09781
rfingers 7.12502
rthumb 6.49617 -24.7826
lclavicle 4.96962e-015 -7.95139e-016
lhumerus -706.888 75.3009 -621.453
lradius 7.19483
lwrist -61.8992
lhand -25.7553 6.56051
lfingers 7.12502
lthumb 0.782046 36.5388
rfemur -13.0699 -9.30927 12.6558
rtibia 28.119
rfoot -14.0947 12.0584
rtoes -19.4954
lfemur -12.5052 4.4185 -16.9246
ltibia 29.251
lfoot -13.2435 -9.95926
ltoes 1.4325
109
root -0.0941726 19.2154 3.48254 -177.27 0.0781347 179.966
lowerback -10.6228 -0.49407 3.64731
upperback 14.5904 0.229068 0.722698
thorax 23.04 1.33461 -0.894255
lowerneck 3.20277 -12.0995 -0.522037
upperneck 13.3913 -18.5171 5.06073
head 4.53785 -9.32766 1.14185
rclavicle 5.1684e-015 1.47101e-014
rhumerus -1281.02 -98.6386 1197.34
rradius 9.72468
rwrist 42.6229
rhand -19.9568 5.42973
rfingers 7.12502
rthumb 6.38151 -24.4541
lclavicle 5.1684e-015 1.47101e-014
lhumerus -700.86 71.4436 -614.565
lradius 6.76278
lwrist -62.4919
lhand -26.0327 7.17888
lfingers 7.12502
lthumb 0.514115 37.158
rfemur -13.2301 -9.17672 12.5896
rtibia 28.1032
rfoot -14.0295 11.8858
rtoes -19.6311
lfemur -12.7096 4.37191 -17.0463
ltibia 29.2992
lfoot -13.1155 -9.85128
ltoes 1.31652
110
root -0.0968032 19.2182 3.53825 -177.314 0.0446588 179.906
lowerback -10.3156 -0.434053 3.8218
upperback 14.6836 0.343716 0.68026
thorax 22.9573 1.43685 -1.00565
lowerneck 2.36937 -12.0618 -0.53858
upperneck 13.5256 -18.4332 5.10461
head 4.74638 -9.24427 1.0926
rclavicle 3.97569e-016 6.36111e-015
rhumerus -1261.8 -101.396 1177.53
rradius 9.32226
rwrist 42.8831
rhand -20.3373 6.07326
rfingers 7.12502
rthumb 6.01417 -23.8214
lclavicle 3.97569e-016 6.36111e-015
lhumerus -696.938 67.4121 -609.958
lradius 6.38152
lwrist -62.8988
lhand -26.5127 7.32531
lfingers 7.12502
lthumb 0.0505555 37.3051
rfemur -13.3543 -9.05898 12.5387
rtibia 28.081
rfoot -13.9648 11.683
rtoes -19.7245
lfemur -12.8733 4.24102 -17.1414
ltibia 29.3235
lfoot -12.9673 -9.74735
ltoes 1.27965
